<?xml version="1.0" encoding="utf-8"?>
<!-- Generator: Adobe Illustrator 18.0.0, SVG Export Plug-In . SVG Version: 6.00 Build 0)  -->
<!DOCTYPE svg PUBLIC "-//W3C//DTD SVG 1.1//EN" "http://www.w3.org/Graphics/SVG/1.1/DTD/svg11.dtd">
<svg xmlns="http://www.w3.org/2000/svg" xmlns:xlink="http://www.w3.org/1999/xlink" version="1.1" id="Слой_2" x="0px" y="0px" viewBox="0 223 1590 849" enable-background="new 0 223 1590 849" xml:space="preserve">
<path fill="#000000" stroke="" stroke-width="2" stroke-miterlimit="10" d="M1558.6,897.6l-32.2-3.8c0,0,10.7-2,22.5-14.7  s14.7-30.7,14.7-30.7l22.5-14.2c0,0-49.8-80.2-47.8-84c2-3.8,0-31.3,0-31.3l11.8-2v-59.6l-63.5-2.9l-4.9-97.8l-6.9,2v44l-68.4-7.3  l-2-4.4c0,0-53.8,7.8-51.8-2s9.8-14.7-15.6-37.1c-25.4-22.5-134.9-31.3-156.3-30.3c-21.5,0.9-43.1,8.7-50.9,8.7  c-7.8,0-31.3,17.6-48.6,29.3s-93,28.4-135,23.5c-42-4.9-88.9-51.8-103.6-56.7c-14.7-4.9-17.6,7.8-17.6,7.8s-9.8-7.8-84-55.6  c-74.2-47.8-183.8-73.3-183.8-73.3l-47.8,77.2c0,0,9.8,0,6.9,5.8c-2.9,5.8-10.7,25.4-10.7,25.4l-30.3-18.6h18.5l19.1-42.1l2.9-16.6  l-11.8-17.1c2.3-1.2,4.6-2.4,7.2-3.7c15.4-8.1,97.5-45.4,138.6-51.3c28-4,28.9-9.1,25.3-15.2l1.1,0.3l2.9-5.8c0,0,9.8,0.9,23.5,8.7  s26.4,6.9,21.5,0c-4.9-6.9-6.9-7.8-6.9-7.8l46.9,8.7l2.9-20.5l-77.2-18.6l-2.9-10.7l-27.4-8.7l-4.9,4.9l-12.7-0.9l-3.7-8.9  c5.3-6.6,12.7-15.5,16.7-17.8c1.9-1.1,3.8-1.6,5.8-1.9c0.1,4.1,0.5,7.9,1.5,10.7c3.4,10.3,12.5,11.7,21.2,12.5  c8.7,0.8,21.2-10.2,26.4-15.4c5.2-5.2,3.7-9.5,0-25.7c-3.7-16.2-11-15.4-19.7-20.5c-8.7-5.2-24.2,2.9-27.8,12.5  c0,0-1.3,9.9-1.6,19.9c-4.1-0.1-8.3,0-11,0.7c-3.8,0.9-9.9,11.7-13.9,19.1l-0.7-1.7h-21.2l-11.8,6.9l-2,7.8c0,0-28.4,2.9-52.7,7.8  c-24.4,4.9-52.7,59.6-52.7,59.6s-4.9,5.8-0.9-5.8c3.8-11.8,2-13.6-14.7-8.7c-16.6,4.9-77.2,44.9-77.2,44.9s-25.4-4-46.9-6.9  c-21.5-2.9-54.7,0-70.4,13.6c-15.6,13.6-4.9,108.5,5.8,126.1c10.7,17.6,60.6,12.1,60.6,12.1l-4.2,9.1c-2.5-0.7-5.2-1.2-8-1.7  c-18-2.9-16.2,14.7-14.2,29.3c0.5,4.2,2.5,6.9,5.3,8.5l-23.6,50.5c-37.6-15.5-79.2-21.1-120.4-22.7c-76.2-3.2-144.6,56.4-168,77  c-23.5,20.5-9.8,24.4,0,27.4c4.4,1.3,15.2,2.6,28,3.6C18.6,756,2.7,800.3,2.7,848.3c0,117.7,95.4,213.1,213.1,213.1  c68.8,0,129.8-32.6,168.8-83.1c18.5,1.9,49,4.4,55,2.4c8.7-2.9,17.6-14.7,17.6-14.7s-1.7-15-3.4-36.2c23.8,6.5,48,11.9,59.2,13.8  c9,1.5,13.4,1.9,15.4,1.7l11.1,29.5h8.7V969l7.8-2v7.8h58.7l20.5,7.8c0,0,169.1,2.9,193.6,4.9c24.4,2,86,7.8,107.5,0  c21.5-7.8,47.8-29.3,47.8-29.3h127.5c37.4,61.7,105.1,103.1,182.6,103.1c74.3,0,139.7-38,177.8-95.7c36.2-0.4,85.6-0.9,91.8-1.6  c9.8-0.9,17.6-9.8,17.6-9.8s0.9-39.1,0-44C1580.2,905.4,1558.6,897.6,1558.6,897.6z M498.2,390.4c6.9-10.7,36.2-57.6,59.6-67.4  s68.4,0.9,68.4,0.9l2.9,8.7l18.5,8.7l22.3,6.1c2.4,5.4-0.5,10.1-26.1,13.6c-41.1,5.8-123.1,43.2-138.6,51.3  c-1.5,0.8-2.9,1.6-4.4,2.3l-9.5-13.8C491.3,401.1,491.3,401.1,498.2,390.4z M130.6,741.4l17.5,32.5c-18.7,17-31,40.8-32.7,67.7  l-36.3,6.6C79.1,804.8,99.2,766.4,130.6,741.4z M174.1,978.4c-39.5-12.6-71.2-42.8-86-81.2l36.3-6.6c10.9,23.5,30.5,41.9,54.6,51.4  L174.1,978.4z M192.3,750.5l-15.6-28.9c44.8,5.3,76.2,15.1,99.1,28.9l-10.1,10.6c-14.7-8.5-31.8-13.2-50-13.2  C207.6,747.7,199.8,748.7,192.3,750.5z M223.5,984.6l4.9-36.7c25.8-3.3,48.6-16.3,64.5-35.4l33.3,15.9  C302.9,960.8,265.8,982.4,223.5,984.6z M347.7,883.7l-33.3-16c1.2-6.2,1.9-12.7,1.9-19.3c0-19.3-5.4-37.4-14.8-52.6l10.7-11.3  c5,7.3,9.3,15.1,13,23.3c7.9,17.6,16.2,45.2,23.3,73C348.2,881.7,347.9,882.6,347.7,883.7z M398.7,710.1c-2.5-3.6-5.2-7.3-8.1-10.9  c-12.5-16.2-26.2-29.3-41.2-40.1l53.9-90.8c0,0,8.7,5.8,13.6,9.8c4.9,4,19.6,22.5,21.5,39.1c0.1,0.7,0.1,1.3,0.3,2.1  c-10.5,17.8-25.6,44.1-30.6,54.6C405.2,680.4,401.7,695,398.7,710.1z M509.9,901.6c-6.9,5.8-5.8,15.6-5.8,15.6l-52.2-13  c-0.7-11.7-1.3-23.8-1.6-35.9c-0.8-38.6-5.6-82.5-36.2-134.4c4.2-20.8,8.9-42.5,11.7-50.4c2.9-8.3,11.8-23.5,20-36.3  c1.2,4.2,2.5,8.3,3.7,12.1c-7.8,28.2-15.6,75.4-14.8,102.4c0.9,31.3,72.3,105.6,72.3,105.6s2.9,5.8,0.9,13.6  c-2,7.8,8.7,14.7,8.7,14.7S516.8,895.7,509.9,901.6z M513.8,843.9c-20.5-13.6-60.6-78.2-61.6-99.6c-0.5-12.2,5.8-32.2,11.4-47.3  l61.9,151.3C525.5,848.3,534.4,857.6,513.8,843.9z M568.6,860.5l-27.4-13.6c0,0-56.7-166.2-64.5-198.4c-7.8-32.2,9.8-53.3,9.8-53.3  l9.8,6.4c0,0-16.6,5.7-11.8,16.6C489.3,629,505,625,505,625l5.8,7v12.5l-16.6,15.6l15.6,29.3c0,0,0,0,2,13.6  c2,13.6,22.5,36.2,22.5,36.2s-6.9,15.6,0,30.3c6.9,14.7,28.4,30.3,28.4,30.3s-10.7,15.6-7.8,36.2c2.9,20.5,13.6,14.7,13.6,14.7  L568.6,860.5L568.6,860.5z M823.6,762.7c-8.7,3.8-20.5,18.5-20.5,18.5h-33.3c0,0,0,0,9-5.8c9-5.8,31-44.9,37-44.9  s12.6-11.8,12.6-11.8h11.8l2,26.4c0,0,9.8-2,14.7,4.9c4.9,6.9,14.7,10.7,14.7,10.7S832.5,758.9,823.6,762.7z M837.4,685.6l13.6-38.2  l33.3,43.1L837.4,685.6z M1252.3,978.4c-9.8-3.2-18.9-7.3-27.7-12.5h29.3L1252.3,978.4z M1301.8,984.6l2.5-18.7h59  C1345,976.8,1324.1,983.5,1301.8,984.6z"/>
</svg>
